<svg xmlns="http://www.w3.org/2000/svg" viewBox="0 0 610.93 56.12"><defs><style>.cls-1{fill:#e5b449;}</style></defs><title>Ativo 4</title><g id="Camada_2" data-name="Camada 2"><g id="section_home"><path d="M0,24.71,25.29,8.49v3.07L3,25.86v.25l22.31,14.3v3.07L0,27.26Z"/><path class="cls-1" d="M34.43,3.83h4.09l7.62,19.6,2.7,7.47h.28l2.63-7.47,7.56-19.6h4.08V45.9h-3V16.47c0-1.4,0-3,.1-4.69s.15-3.31.24-4.76h-.21l-2.63,7.54L50,34.41H47.81l-8-19.85L37.07,7h-.14c.09,1.45.18,3,.28,4.76s.13,3.29.13,4.69V45.9H34.43Z"/><path class="cls-1" d="M71.15,38.24a7.2,7.2,0,0,1,1.46-4.47,11.67,11.67,0,0,1,4.54-3.32A34.45,34.45,0,0,1,85,28.16q4.81-.9,11.61-1.47A13.44,13.44,0,0,0,96.16,23a7.94,7.94,0,0,0-1.62-3.1,8,8,0,0,0-3.05-2.14,12.4,12.4,0,0,0-4.75-.8,17.26,17.26,0,0,0-3.67.39,22,22,0,0,0-3.47,1,26.9,26.9,0,0,0-3,1.37c-.93.49-1.74.95-2.43,1.37L72.75,19a26.08,26.08,0,0,1,2.52-1.44,30.48,30.48,0,0,1,3.43-1.47,33.41,33.41,0,0,1,4-1.15,20,20,0,0,1,4.37-.48,15.74,15.74,0,0,1,5.71.93,10.7,10.7,0,0,1,3.92,2.52A10.1,10.1,0,0,1,99,21.68a14.34,14.34,0,0,1,.73,4.62V45.9H97.13l-.34-4.59h-.14A36.45,36.45,0,0,1,90.1,45a17.8,17.8,0,0,1-7.38,1.63,18.39,18.39,0,0,1-4.33-.51,12,12,0,0,1-3.7-1.53A8,8,0,0,1,72.12,42,7.08,7.08,0,0,1,71.15,38.24Zm3.12-.12a4.92,4.92,0,0,0,.76,2.8,5.93,5.93,0,0,0,2,1.89A9.86,9.86,0,0,0,80,43.89a15.14,15.14,0,0,0,3.29.36q6.16,0,13.37-5.56V28.86A98.85,98.85,0,0,0,86,30.2a33.35,33.35,0,0,0-6.89,2,9.11,9.11,0,0,0-3.74,2.62A5.36,5.36,0,0,0,74.27,38.12ZM85.49,9.39H82.86L89.24.58h3.67Z"/><path class="cls-1" d="M112.72,15.26h2.63l.35,7.53h.14a22.3,22.3,0,0,1,6.69-6,17.44,17.44,0,0,1,9-2.33,22.57,22.57,0,0,1,3.36.26,11.51,11.51,0,0,1,3.29,1l-.76,2.49a29.22,29.22,0,0,0-3.12-.83,17.54,17.54,0,0,0-3.26-.26,15.67,15.67,0,0,0-7.93,2.18,22.65,22.65,0,0,0-7.24,7.4V45.9h-3.12Z"/><path class="cls-1" d="M144.11,30.65a16,16,0,0,1,1.42-6.87,14.22,14.22,0,0,1,3.91-5.07,17.76,17.76,0,0,1,5.79-3.13,22.36,22.36,0,0,1,7-1.09,15.87,15.87,0,0,1,7,1.41,21.72,21.72,0,0,1,5,3.25l-1.81,1.92a19.34,19.34,0,0,0-4.57-3A13.17,13.17,0,0,0,162.33,17a18,18,0,0,0-6.1,1,13.65,13.65,0,0,0-4.74,2.81,12.5,12.5,0,0,0-3.05,4.31,13.82,13.82,0,0,0-1.08,5.56,13.65,13.65,0,0,0,1.08,5.49,12.35,12.35,0,0,0,3,4.27,13.43,13.43,0,0,0,4.71,2.78,18,18,0,0,0,6.1,1,15.12,15.12,0,0,0,6.2-1.24,20.32,20.32,0,0,0,5-3.16l1.6,2a20.73,20.73,0,0,1-5.79,3.58,18.58,18.58,0,0,1-7.17,1.34A22.84,22.84,0,0,1,155,45.59a17.2,17.2,0,0,1-5.72-3.13,14.2,14.2,0,0,1-3.77-5A16.28,16.28,0,0,1,144.11,30.65Z"/><path class="cls-1" d="M181.45,15.26h19.74V45.9h-3V17.69h-16.7Zm17.46-7.41A3.32,3.32,0,0,1,196.59,7a2.8,2.8,0,0,1-.94-2.23,2.84,2.84,0,0,1,.94-2.24,3.66,3.66,0,0,1,4.64,0,2.87,2.87,0,0,1,.94,2.24A2.83,2.83,0,0,1,201.23,7,3.34,3.34,0,0,1,198.91,7.85Z"/><path class="cls-1" d="M216,30.65a17.57,17.57,0,0,1,1.28-6.87,14.45,14.45,0,0,1,3.5-5.07A15.4,15.4,0,0,1,226,15.58a18.18,18.18,0,0,1,12.4,0,15.34,15.34,0,0,1,5.17,3.13,14.58,14.58,0,0,1,3.5,5.07,17.57,17.57,0,0,1,1.28,6.87,17.11,17.11,0,0,1-1.28,6.8,14.81,14.81,0,0,1-3.5,5,15.51,15.51,0,0,1-5.17,3.13,18.34,18.34,0,0,1-12.4,0,15.56,15.56,0,0,1-5.16-3.13,14.67,14.67,0,0,1-3.5-5A17.11,17.11,0,0,1,216,30.65Zm3.26,0a14.93,14.93,0,0,0,1,5.49,12.82,12.82,0,0,0,2.66,4.27A11.85,11.85,0,0,0,227,43.19a13.26,13.26,0,0,0,5.19,1,13.41,13.41,0,0,0,5.17-1,11.65,11.65,0,0,0,4.08-2.78,13,13,0,0,0,2.67-4.27,14.93,14.93,0,0,0,1-5.49,15.12,15.12,0,0,0-1-5.56,13.51,13.51,0,0,0-2.67-4.31A11.59,11.59,0,0,0,237.33,18a13.41,13.41,0,0,0-5.17-1A13.26,13.26,0,0,0,227,18a11.79,11.79,0,0,0-4.06,2.81,13.31,13.31,0,0,0-2.66,4.31A15.12,15.12,0,0,0,219.28,30.65Z"/><path d="M281.08,27.26,255.79,43.48V40.41l22.31-14.3v-.25l-22.31-14.3V8.49l25.29,16.22Z"/><path d="M293.2,24.71,318.49,8.49v3.07l-22.31,14.3v.25l22.31,14.3v3.07L293.2,27.26Z"/><path d="M332.34,56.12h-3.11L351.88.58H355Z"/><path class="cls-1" d="M364.15,3.83h3.18V22.28H390.2V3.83h3.18V45.9H390.2V24.84H367.33V45.9h-3.18Z"/><path class="cls-1" d="M400,30.65a15.71,15.71,0,0,1,1.42-6.77,15.88,15.88,0,0,1,3.75-5.08,16.67,16.67,0,0,1,5.3-3.19,17.49,17.49,0,0,1,6.16-1.12,18.27,18.27,0,0,1,6.17,1,13.43,13.43,0,0,1,4.71,2.81,12.07,12.07,0,0,1,3,4.44,16,16,0,0,1,1,5.94v1.15a4.94,4.94,0,0,1-.14,1.14h-28.2a14.25,14.25,0,0,0,1.14,5.34,12.44,12.44,0,0,0,3,4.21,13.53,13.53,0,0,0,4.58,2.74,16.64,16.64,0,0,0,5.92,1,18.43,18.43,0,0,0,6-.93,24.66,24.66,0,0,0,5.05-2.4l1.25,2.18a34,34,0,0,1-5.26,2.45,23.25,23.25,0,0,1-14.14,0,16.68,16.68,0,0,1-5.57-3.16,14.94,14.94,0,0,1-3.78-5A15.63,15.63,0,0,1,400,30.65Zm28.55-1.86q0-5.92-3.22-8.9a12.25,12.25,0,0,0-8.63-3,14,14,0,0,0-4.78.83,13.6,13.6,0,0,0-4.12,2.36,12.84,12.84,0,0,0-3.05,3.74,13.58,13.58,0,0,0-1.56,4.94Z"/><path class="cls-1" d="M437.72,0H453.1V37q0,7.15,7.21,7.15a17.89,17.89,0,0,0,6.93-1.66l1,2.24c-1.34.51-2.66,1-3.95,1.34a15.53,15.53,0,0,1-4.37.57q-4.77,0-7.31-2.39c-1.68-1.6-2.53-4.14-2.53-7.63V2.43H437.72Z"/><path class="cls-1" d="M473.26,30.65a15.71,15.71,0,0,1,1.42-6.77,15.88,15.88,0,0,1,3.75-5.08,16.67,16.67,0,0,1,5.3-3.19,17.49,17.49,0,0,1,6.16-1.12,18.23,18.23,0,0,1,6.17,1,13.34,13.34,0,0,1,4.71,2.81,12.07,12.07,0,0,1,3,4.44,16,16,0,0,1,1,5.94v1.15a4.94,4.94,0,0,1-.14,1.14h-28.2a14.25,14.25,0,0,0,1.14,5.34,12.44,12.44,0,0,0,3,4.21,13.53,13.53,0,0,0,4.58,2.74,16.64,16.64,0,0,0,5.92,1,18.43,18.43,0,0,0,6-.93,25,25,0,0,0,5.06-2.4l1.24,2.18a34,34,0,0,1-5.26,2.45,23.25,23.25,0,0,1-14.14,0,16.68,16.68,0,0,1-5.57-3.16,14.94,14.94,0,0,1-3.78-5A15.78,15.78,0,0,1,473.26,30.65Zm28.55-1.86q0-5.92-3.22-8.9a12.25,12.25,0,0,0-8.63-3,14,14,0,0,0-4.78.83,13.6,13.6,0,0,0-4.12,2.36A12.84,12.84,0,0,0,478,23.85a13.58,13.58,0,0,0-1.56,4.94Z"/><path class="cls-1" d="M511.85,15.26h2.64l.34,5.87h.28a33.35,33.35,0,0,1,6-4.75,13.35,13.35,0,0,1,7.11-1.89q12,0,12,12.33V45.9h-3.12V27.2c0-3.45-.72-6-2.18-7.66s-3.85-2.49-7.17-2.49a13,13,0,0,0-3.33.41,12.61,12.61,0,0,0-3,1.28,21.68,21.68,0,0,0-3,2.17q-1.56,1.31-3.36,3v22h-3.12Z"/><path class="cls-1" d="M545.87,30.65a17.57,17.57,0,0,1,1.28-6.87,14.45,14.45,0,0,1,3.5-5.07,15.4,15.4,0,0,1,5.16-3.13,18.18,18.18,0,0,1,12.4,0,15.34,15.34,0,0,1,5.17,3.13,14.58,14.58,0,0,1,3.5,5.07,17.57,17.57,0,0,1,1.28,6.87,17.11,17.11,0,0,1-1.28,6.8,14.81,14.81,0,0,1-3.5,5,15.51,15.51,0,0,1-5.17,3.13,18.34,18.34,0,0,1-12.4,0,15.56,15.56,0,0,1-5.16-3.13,14.67,14.67,0,0,1-3.5-5A17.11,17.11,0,0,1,545.87,30.65Zm3.26,0a14.93,14.93,0,0,0,1,5.49,12.82,12.82,0,0,0,2.66,4.27,11.85,11.85,0,0,0,4.06,2.78,13.26,13.26,0,0,0,5.19,1,13.41,13.41,0,0,0,5.17-1,11.65,11.65,0,0,0,4.08-2.78,13,13,0,0,0,2.67-4.27,14.93,14.93,0,0,0,1-5.49,15.12,15.12,0,0,0-1-5.56,13.51,13.51,0,0,0-2.67-4.31A11.59,11.59,0,0,0,567.18,18,13.41,13.41,0,0,0,562,17a13.26,13.26,0,0,0-5.19,1,11.79,11.79,0,0,0-4.06,2.81,13.31,13.31,0,0,0-2.66,4.31A15.12,15.12,0,0,0,549.13,30.65Z"/><path d="M610.93,27.26,585.64,43.48V40.41L608,26.11v-.25l-22.31-14.3V8.49l25.29,16.22Z"/></g></g></svg>