<svg xmlns="http://www.w3.org/2000/svg" viewBox="0 0 183.36 16.84"><defs><style>.cls-1{fill:#fff;}.cls-2{fill:#e5b449;}</style></defs><title>Ativo 6</title><g id="Camada_2" data-name="Camada 2"><g id="section_home"><path class="cls-1" d="M0,7.42,7.59,2.55v.92L.89,7.76v.08l6.7,4.29v.92L0,8.18Z"/><path class="cls-2" d="M10.33,1.15h1.23L13.85,7l.81,2.24h.08L15.53,7,17.8,1.15H19V13.78h-.9V4.94c0-.42,0-.89,0-1.4s.05-1,.08-1.43h-.07l-.79,2.26-2.37,6h-.66L12,4.37l-.83-2.26h-.05c0,.43.06.91.09,1.43s0,1,0,1.4v8.84h-.88Z"/><path class="cls-2" d="M21.36,11.48a2.15,2.15,0,0,1,.43-1.34,3.44,3.44,0,0,1,1.36-1,10.58,10.58,0,0,1,2.37-.69A34.68,34.68,0,0,1,29,8a4,4,0,0,0-.15-1.1A2.32,2.32,0,0,0,28.37,6a2.37,2.37,0,0,0-.91-.64A3.71,3.71,0,0,0,26,5.1a5.78,5.78,0,0,0-1.1.11,7.33,7.33,0,0,0-1,.31,7.74,7.74,0,0,0-.91.41l-.73.41-.42-.63c.2-.13.45-.27.76-.43a8.18,8.18,0,0,1,1-.44,10.11,10.11,0,0,1,1.21-.35,6.33,6.33,0,0,1,1.31-.14,4.61,4.61,0,0,1,1.71.28A3.28,3.28,0,0,1,29,5.38a3,3,0,0,1,.67,1.13,4.14,4.14,0,0,1,.22,1.39v5.88h-.77l-.1-1.38h0a11.25,11.25,0,0,1-2,1.12,5.41,5.41,0,0,1-2.21.49,5.09,5.09,0,0,1-1.3-.16,3.37,3.37,0,0,1-1.11-.46,2.3,2.3,0,0,1-.77-.78A2.09,2.09,0,0,1,21.36,11.48Zm.93,0a1.51,1.51,0,0,0,.23.84,1.86,1.86,0,0,0,.61.57,3,3,0,0,0,.88.32,4.6,4.6,0,0,0,1,.11,6.77,6.77,0,0,0,4-1.67V8.66a30.21,30.21,0,0,0-3.19.4,10.08,10.08,0,0,0-2.07.6,2.86,2.86,0,0,0-1.13.78A1.64,1.64,0,0,0,22.29,11.44Zm3.37-8.62h-.79L26.78.17h1.11Z"/><path class="cls-2" d="M33.83,4.58h.79l.11,2.26h0a6.73,6.73,0,0,1,2-1.79,5.23,5.23,0,0,1,2.7-.7,7,7,0,0,1,1,.08,3.47,3.47,0,0,1,1,.3l-.23.75a9.6,9.6,0,0,0-.93-.25,5.3,5.3,0,0,0-1-.08,4.67,4.67,0,0,0-2.38.66A6.77,6.77,0,0,0,34.77,8v5.75h-.94Z"/><path class="cls-2" d="M43.25,9.2a4.69,4.69,0,0,1,.43-2.06,4.23,4.23,0,0,1,1.17-1.53,5.38,5.38,0,0,1,1.74-.93,6.61,6.61,0,0,1,2.11-.33,4.78,4.78,0,0,1,2.11.42,6.52,6.52,0,0,1,1.49,1l-.54.57a6,6,0,0,0-1.38-.89,4,4,0,0,0-1.66-.33,5.66,5.66,0,0,0-1.83.29,4,4,0,0,0-1.42.85,3.72,3.72,0,0,0-.92,1.29,4.47,4.47,0,0,0,0,3.32A3.84,3.84,0,0,0,46.87,13a5.32,5.32,0,0,0,1.83.3,4.51,4.51,0,0,0,1.86-.37,6.32,6.32,0,0,0,1.51-1l.48.59a6.35,6.35,0,0,1-1.74,1.08,5.68,5.68,0,0,1-2.15.4,6.69,6.69,0,0,1-2.15-.33,5.2,5.2,0,0,1-1.72-.94,4.31,4.31,0,0,1-1.13-1.5A4.92,4.92,0,0,1,43.25,9.2Z"/><path class="cls-2" d="M54.46,4.58h5.93v9.2h-.92V5.31h-5ZM59.7,2.36a1.05,1.05,0,0,1-.7-.25.88.88,0,0,1-.28-.67A.87.87,0,0,1,59,.77a1.1,1.1,0,0,1,1.4,0,.87.87,0,0,1,.28.67.88.88,0,0,1-.28.67A1.05,1.05,0,0,1,59.7,2.36Z"/><path class="cls-2" d="M64.84,9.2a5.15,5.15,0,0,1,.38-2.06,4.43,4.43,0,0,1,1-1.53,4.58,4.58,0,0,1,1.55-.93,5.41,5.41,0,0,1,3.72,0,4.58,4.58,0,0,1,1.55.93,4.3,4.3,0,0,1,1,1.53,5.15,5.15,0,0,1,.39,2.06,5.08,5.08,0,0,1-.39,2,4.36,4.36,0,0,1-1,1.5,4.6,4.6,0,0,1-1.55.94,5.41,5.41,0,0,1-3.72,0,4.6,4.6,0,0,1-1.55-.94,4.5,4.5,0,0,1-1-1.5A5.08,5.08,0,0,1,64.84,9.2Zm1,0a4.61,4.61,0,0,0,.29,1.65,4.11,4.11,0,0,0,.81,1.28,3.31,3.31,0,0,0,1.21.83,4.18,4.18,0,0,0,3.11,0,3.39,3.39,0,0,0,1.23-.83,4.08,4.08,0,0,0,.8-1.28,4.61,4.61,0,0,0,.29-1.65,4.64,4.64,0,0,0-.29-1.67,4,4,0,0,0-.8-1.29,3.44,3.44,0,0,0-1.23-.85,4.31,4.31,0,0,0-3.11,0,3.36,3.36,0,0,0-1.21.85,4,4,0,0,0-.81,1.29A4.64,4.64,0,0,0,65.81,9.2Z"/><path class="cls-1" d="M84.36,8.18l-7.59,4.87v-.92l6.7-4.29V7.76l-6.7-4.29V2.55l7.59,4.87Z"/><path class="cls-1" d="M88,7.42l7.59-4.87v.92l-6.7,4.29v.08l6.7,4.29v.92L88,8.18Z"/><path class="cls-1" d="M99.75,16.84h-.94L105.61.17h.94Z"/><path class="cls-2" d="M109.29,1.15h1V6.69h6.86V1.15h1V13.78h-1V7.45h-6.86v6.33h-1Z"/><path class="cls-2" d="M120,9.2a4.73,4.73,0,0,1,.43-2,4.81,4.81,0,0,1,1.12-1.53A5.26,5.26,0,0,1,125,4.35a5.48,5.48,0,0,1,1.85.3,4.13,4.13,0,0,1,1.41.84,3.5,3.5,0,0,1,.89,1.33,4.78,4.78,0,0,1,.32,1.78V9a1.33,1.33,0,0,1,0,.34H121a4.2,4.2,0,0,0,.34,1.6,3.76,3.76,0,0,0,.9,1.27,4.17,4.17,0,0,0,1.37.82,5,5,0,0,0,1.78.3A5.46,5.46,0,0,0,127.2,13a7.05,7.05,0,0,0,1.52-.72l.37.65a9.69,9.69,0,0,1-1.58.74,6.87,6.87,0,0,1-4.24,0,5,5,0,0,1-1.68-.95,4.61,4.61,0,0,1-1.13-1.51A4.68,4.68,0,0,1,120,9.2Zm8.57-.56a3.43,3.43,0,0,0-1-2.67,3.66,3.66,0,0,0-2.58-.89,4.12,4.12,0,0,0-1.44.25,3.92,3.92,0,0,0-1.24.71,3.86,3.86,0,0,0-.91,1.12A4.15,4.15,0,0,0,121,8.64Z"/><path class="cls-2" d="M131.38,0H136V11.11a1.91,1.91,0,0,0,2.17,2.15,5.44,5.44,0,0,0,2.08-.5l.29.67c-.41.16-.8.29-1.19.41A4.78,4.78,0,0,1,138,14a3,3,0,0,1-2.19-.72,3,3,0,0,1-.76-2.29V.73h-3.7Z"/><path class="cls-2" d="M142,9.2a4.73,4.73,0,0,1,.43-2,4.81,4.81,0,0,1,1.12-1.53A5.26,5.26,0,0,1,147,4.35a5.48,5.48,0,0,1,1.85.3,4.13,4.13,0,0,1,1.41.84,3.5,3.5,0,0,1,.89,1.33,4.78,4.78,0,0,1,.32,1.78V9a1.33,1.33,0,0,1,0,.34H143a4.2,4.2,0,0,0,.34,1.6,3.76,3.76,0,0,0,.9,1.27,4.17,4.17,0,0,0,1.37.82,5,5,0,0,0,1.78.3A5.46,5.46,0,0,0,149.2,13a7.05,7.05,0,0,0,1.52-.72l.37.65a9.69,9.69,0,0,1-1.58.74,6.87,6.87,0,0,1-4.24,0,5,5,0,0,1-1.68-.95,4.61,4.61,0,0,1-1.13-1.51A4.68,4.68,0,0,1,142,9.2Zm8.57-.56a3.46,3.46,0,0,0-1-2.67,3.7,3.7,0,0,0-2.59-.89,4.12,4.12,0,0,0-1.44.25,3.92,3.92,0,0,0-1.24.71,3.86,3.86,0,0,0-.91,1.12A4.15,4.15,0,0,0,143,8.64Z"/><path class="cls-2" d="M153.63,4.58h.79l.1,1.76h.08a10.36,10.36,0,0,1,1.8-1.42,4,4,0,0,1,2.13-.57q3.6,0,3.6,3.7v5.73h-.93V8.16a3.41,3.41,0,0,0-.66-2.3,2.75,2.75,0,0,0-2.15-.74,4,4,0,0,0-1,.12,3.68,3.68,0,0,0-.9.38,6.35,6.35,0,0,0-.92.66c-.31.26-.65.56-1,.91v6.59h-.93Z"/><path class="cls-2" d="M163.84,9.2a5.15,5.15,0,0,1,.38-2.06,4.43,4.43,0,0,1,1.05-1.53,4.68,4.68,0,0,1,1.55-.93,5.41,5.41,0,0,1,3.72,0,4.58,4.58,0,0,1,1.55.93,4.18,4.18,0,0,1,1,1.53,5.15,5.15,0,0,1,.39,2.06,5.08,5.08,0,0,1-.39,2,4.23,4.23,0,0,1-1,1.5,4.6,4.6,0,0,1-1.55.94,5.41,5.41,0,0,1-3.72,0,4.7,4.7,0,0,1-1.55-.94,4.5,4.5,0,0,1-1.05-1.5A5.08,5.08,0,0,1,163.84,9.2Zm1,0a4.4,4.4,0,0,0,.3,1.65,3.91,3.91,0,0,0,.8,1.28,3.4,3.4,0,0,0,1.21.83,4.18,4.18,0,0,0,3.11,0,3.39,3.39,0,0,0,1.23-.83,4.08,4.08,0,0,0,.8-1.28,4.61,4.61,0,0,0,.29-1.65,4.64,4.64,0,0,0-.29-1.67,4,4,0,0,0-.8-1.29,3.44,3.44,0,0,0-1.23-.85,4.31,4.31,0,0,0-3.11,0,3.45,3.45,0,0,0-1.21.85,3.85,3.85,0,0,0-.8,1.29A4.44,4.44,0,0,0,164.81,9.2Z"/><path class="cls-1" d="M183.36,8.18l-7.59,4.87v-.92l6.7-4.29V7.76l-6.7-4.29V2.55l7.59,4.87Z"/></g></g></svg>